<svg xmlns="http://www.w3.org/2000/svg" viewBox="0 0 500 500"><g id="freepik--Floor--inject-46"><path d="M460.27,477.5c0,.14-94.15.26-210.26.26s-210.28-.12-210.28-.26,94.13-.26,210.28-.26S460.27,477.36,460.27,477.5Z" style="fill:#263238"></path></g><g id="freepik--popcorns-2--inject-46"><path d="M278.77,179.28a8.44,8.44,0,0,0,3.69-14,6.5,6.5,0,0,0-8.35-7.5A10.3,10.3,0,0,0,259,166.94a16.2,16.2,0,1,0,2,27.64,9.85,9.85,0,0,1,2.9-1.72c1.77-.48,3.59.38,5.31,1a14.85,14.85,0,0,0,10.52.22c3.33-1.34,6-4.62,5.94-8.2S282.34,178.87,278.77,179.28Z" style="fill:#fff"></path><path d="M278.77,179.28a5,5,0,0,1,1.64,0,6.49,6.49,0,0,1,3.92,2.52,6.94,6.94,0,0,1,1.38,3.12,7.19,7.19,0,0,1-.51,4,10.18,10.18,0,0,1-7.58,5.91,14.92,14.92,0,0,1-5.76-.08,20.17,20.17,0,0,1-3-.84,17.47,17.47,0,0,0-3-.94,4.14,4.14,0,0,0-3,.5c-.92.55-1.78,1.3-2.79,1.89A16.91,16.91,0,0,1,246,196.78a16.08,16.08,0,0,1-6.44-4.36,17.24,17.24,0,0,1-3.83-7.09,15.87,15.87,0,0,1,.11-8.29,17.3,17.3,0,0,1,3.61-6.65,15.81,15.81,0,0,1,6-4.25,16.89,16.89,0,0,1,13.69.58l-.35.21a10.53,10.53,0,0,1,15.43-9.3h-.16a6.69,6.69,0,0,1,8.57,7.72l0-.14a8.79,8.79,0,0,1,2.33,6.84,8.31,8.31,0,0,1-2.27,4.91,8.61,8.61,0,0,1-2.76,2,7,7,0,0,1-1.11.37s.38-.14,1.07-.45a8.88,8.88,0,0,0,2.68-2,8.23,8.23,0,0,0,2.14-4.82,8.54,8.54,0,0,0-2.31-6.59l-.06-.06v-.08a6.51,6.51,0,0,0-1.68-5.68,6.42,6.42,0,0,0-6.45-1.59l-.08,0-.07,0a10.35,10.35,0,0,0-9.46.07,10.24,10.24,0,0,0-5.29,8.88v.39l-.35-.18a16.45,16.45,0,0,0-13.28-.54,15.47,15.47,0,0,0-5.82,4.12,16.89,16.89,0,0,0-3.5,6.45,15.27,15.27,0,0,0-.1,8,16.52,16.52,0,0,0,3.7,6.87,15.51,15.51,0,0,0,6.23,4.24,16.17,16.17,0,0,0,7.19.86,16.44,16.44,0,0,0,6.56-2.14c1-.56,1.81-1.3,2.8-1.89a4.65,4.65,0,0,1,3.31-.54,18.63,18.63,0,0,1,3,1,19.73,19.73,0,0,0,2.89.85,14.82,14.82,0,0,0,5.62.11,9.85,9.85,0,0,0,7.38-5.67,7,7,0,0,0,.54-3.87,6.75,6.75,0,0,0-1.31-3,6.53,6.53,0,0,0-3.77-2.54A7.09,7.09,0,0,0,278.77,179.28Z" style="fill:#263238"></path><g style="opacity:0.30000000000000004"><path d="M257.64,181.23a27.9,27.9,0,0,1,1.25-10.71c-2.58,3-3.67,5.89-3,11.26a10.46,10.46,0,0,0,7.12,8.77C260.58,188.25,258.1,184.7,257.64,181.23Z"></path></g><path d="M276.51,179.05s-.07.21-.33.5a3.61,3.61,0,0,1-1.39.95,3.68,3.68,0,0,1-2.57,0,3.92,3.92,0,0,1-2.32-2.3l.21.16a10.83,10.83,0,0,1-3.42-.84,8,8,0,0,1-3.5-2.81,6.69,6.69,0,0,1-1.13-3.5,5.42,5.42,0,0,1,.46-2.43,2.14,2.14,0,0,1,.49-.76,7,7,0,0,0-.58,3.17,6.57,6.57,0,0,0,1.15,3.25,7.9,7.9,0,0,0,3.32,2.61,10.79,10.79,0,0,0,3.25.82h.16l.05.15a3.57,3.57,0,0,0,2,2.07,3.45,3.45,0,0,0,2.32.07A5.16,5.16,0,0,0,276.51,179.05Z" style="fill:#263238"></path><path d="M263.42,191.23a3.64,3.64,0,0,1-.73-.62,22,22,0,0,1-1.76-1.91,17.73,17.73,0,0,1-2.15-3.23,14.32,14.32,0,0,1-1.44-4.54,19.83,19.83,0,0,1,.64-8.56,17.66,17.66,0,0,1,.95-2.43,3,3,0,0,1,.49-.82c.08,0-.53,1.25-1.08,3.35a21.05,21.05,0,0,0-.48,8.38,16.19,16.19,0,0,0,3.36,7.62C262.54,190.2,263.49,191.17,263.42,191.23Z" style="fill:#263238"></path><path d="M283.68,190a4.13,4.13,0,0,1-1.61.31,10.74,10.74,0,0,1-3.95-.32,6.54,6.54,0,0,1-3.33-2.18,2.63,2.63,0,0,1-.7-1.49c.08,0,.32.54,1,1.25a7.07,7.07,0,0,0,3.2,1.92,13.57,13.57,0,0,0,3.79.45A6.59,6.59,0,0,1,283.68,190Z" style="fill:#263238"></path><path d="M227.2,200.36c-2-5.69-10.44-3.72-14.13-.48a10.61,10.61,0,0,0-3.5,5.57,8.3,8.3,0,0,0,8.79,10,3.43,3.43,0,0,0,2.81,4.17,4.87,4.87,0,0,0,4.73-2.58,9.61,9.61,0,0,0,4.26,6.34,5.58,5.58,0,0,0,4.54,9.65,5.92,5.92,0,0,0,4.67,5.25,9.51,9.51,0,0,0,10.88-8.61c0-3.74-2.93-6.73-5.65-9.29a15.35,15.35,0,0,0,5.8-4.11,21.3,21.3,0,0,0,2.19-3.06c.39-.65.76-1.32,1.11-2,2.24-4.37,3.38-9.94.61-14a16.34,16.34,0,0,0-4.63-4.08c-3.93-2.63-8.7-5.17-13.16-3.62a15.54,15.54,0,0,0-6.92,4.87,11.25,11.25,0,0,0-2.4,5.94" style="fill:#ebebeb"></path><path d="M227.2,200.36a6.21,6.21,0,0,1,.12-1.22,10.85,10.85,0,0,1,1.25-3.32,14.49,14.49,0,0,1,1.48-2.13,13.78,13.78,0,0,1,2.3-2.07,17,17,0,0,1,3.09-1.8,9.16,9.16,0,0,1,3.94-.89c2.9,0,5.89,1.28,8.75,3a39.23,39.23,0,0,1,4.31,3,11.47,11.47,0,0,1,1.91,2,9.62,9.62,0,0,1,1.3,2.58,12.51,12.51,0,0,1,.28,5.94,20.87,20.87,0,0,1-2,5.9,25.07,25.07,0,0,1-3.62,5.43,15.76,15.76,0,0,1-5.59,3.85l.08-.42a30.57,30.57,0,0,1,3.55,3.79,10,10,0,0,1,2.15,4.93,7.91,7.91,0,0,1-1.46,5.31,10.67,10.67,0,0,1-4.31,3.61,7.94,7.94,0,0,1-6.52.31,6,6,0,0,1-3.73-5.11l.29.25A5.84,5.84,0,0,1,230,223.23l0,.39a9.89,9.89,0,0,1-4.37-6.51l.44.08a5.05,5.05,0,0,1-5.08,2.66,3.85,3.85,0,0,1-2.41-1.64,3.21,3.21,0,0,1-.46-2.8l.23.29a8.5,8.5,0,0,1-8.89-10.65,10.89,10.89,0,0,1,3.69-5.45,13.66,13.66,0,0,1,5-2.49,11.15,11.15,0,0,1,4.49-.37,6,6,0,0,1,3,1.32l.46.44c.13.15.23.32.33.45l.27.4.16.36c.19.43.26.65.26.65s-.12-.21-.32-.62l-.17-.35-.28-.38c-.1-.13-.2-.29-.33-.43l-.47-.42a5.81,5.81,0,0,0-3-1.23,10.93,10.93,0,0,0-4.39.42,13.44,13.44,0,0,0-4.89,2.49,10.62,10.62,0,0,0-3.54,5.3,8.12,8.12,0,0,0,8.51,10.13l.33,0-.11.31a3.21,3.21,0,0,0,2.54,3.85,4.59,4.59,0,0,0,4.59-2.45l.32-.57.12.65a9.39,9.39,0,0,0,4.16,6.17l.28.17-.24.22a5.34,5.34,0,0,0,4.34,9.22l.28,0v.29a5.52,5.52,0,0,0,3.42,4.65,7.48,7.48,0,0,0,6.1-.31,10.15,10.15,0,0,0,4.1-3.43,7.4,7.4,0,0,0,1.37-5,9.49,9.49,0,0,0-2-4.68,30,30,0,0,0-3.48-3.72l-.29-.27.36-.15a15.23,15.23,0,0,0,5.42-3.71,25.17,25.17,0,0,0,3.56-5.31,21,21,0,0,0,2-5.77,12.13,12.13,0,0,0-.24-5.73,9.46,9.46,0,0,0-3.07-4.42,38.3,38.3,0,0,0-4.24-3c-2.83-1.74-5.75-3-8.55-3a8.87,8.87,0,0,0-3.82.83,17.59,17.59,0,0,0-3.07,1.74,14.27,14.27,0,0,0-2.28,2,14.57,14.57,0,0,0-1.49,2.08,11,11,0,0,0-1.31,3.25c-.08.39-.13.69-.16.9A1,1,0,0,1,227.2,200.36Z" style="fill:#263238"></path><path d="M242.88,216.46s0,.09-.13.23a2.43,2.43,0,0,1-.56.5,4.5,4.5,0,0,1-2.69.63,8.32,8.32,0,0,1-3.94-1.22,4.73,4.73,0,0,1-2.25-4.49l.34.28a5.21,5.21,0,0,1-1.07.23,9.13,9.13,0,0,1-2.84-.25,4.27,4.27,0,0,1-3.61-5.41,9,9,0,0,1,1.08-2.8,3.93,3.93,0,0,1,.61-.91,4.93,4.93,0,0,1-.43,1,9.91,9.91,0,0,0-.89,2.76,4.5,4.5,0,0,0,1.13,3.87,4.29,4.29,0,0,0,2.22,1,8.57,8.57,0,0,0,2.68.23,4.11,4.11,0,0,0,.95-.2l.4-.14-.06.42a4.3,4.3,0,0,0,2,4,8.14,8.14,0,0,0,3.71,1.25,4.58,4.58,0,0,0,2.56-.43A8,8,0,0,0,242.88,216.46Z" style="fill:#263238"></path><path d="M237,220.64a9.56,9.56,0,0,1-1.22,0,6.41,6.41,0,0,0-2.71.81,13.41,13.41,0,0,0-2.34,1.71c-.57.5-.92.82-1,.77s.21-.45.72-1a9,9,0,0,1,2.35-1.91,5.59,5.59,0,0,1,3-.72C236.55,220.34,237,220.58,237,220.64Z" style="fill:#263238"></path><path d="M226.4,210.88c.15.05-.29,1.59-.37,3.55s.21,3.54.06,3.57a9,9,0,0,1,.31-7.12Z" style="fill:#263238"></path><g style="opacity:0.30000000000000004"><path d="M240.88,217.57a6.72,6.72,0,0,1-5-1,5.24,5.24,0,0,1-2.42-4.38c-2.41.53-5,.22-6.63-1.63a5.29,5.29,0,0,0,5.47,2.69,4.3,4.3,0,0,0,1.8,3.36,8.84,8.84,0,0,0,3.64,1.49,5.82,5.82,0,0,0,4.1-.28,6.45,6.45,0,0,0,2.52-3C243.35,216,242.43,217.31,240.88,217.57Z"></path></g><path d="M329.13,217.78a15,15,0,0,0-16.69-1.89,24.42,24.42,0,0,0-8.58-7.44c-3.46-1.63-7.68-2-11.07-.21s-5.62,5.88-4.58,9.56a5.38,5.38,0,0,0,.4,9.59c-4.56-1.86-8,.57-10.35,3.41a9.86,9.86,0,0,0-1.05,10.45,12.54,12.54,0,0,0,8.59,6.46,17.27,17.27,0,0,0,10.83-1.43c3.66-1.7,6.93-4.65,8.11-8.51a17,17,0,0,0,15.54,7,16.26,16.26,0,0,0,13.19-10.67A15.61,15.61,0,0,0,329.13,217.78Z" style="fill:#f5f5f5"></path><path d="M329.13,217.78s.07.05.2.16l.56.51a13.45,13.45,0,0,1,1.86,2.27,15.91,15.91,0,0,1,2.49,10.6,14.76,14.76,0,0,1-3,7.21A16.67,16.67,0,0,1,324,244a15.83,15.83,0,0,1-10.25.38,17.32,17.32,0,0,1-9.21-6.49l.42-.07a13.36,13.36,0,0,1-4.68,6.5,19.23,19.23,0,0,1-7.58,3.54,15.67,15.67,0,0,1-8.65-.41,12.59,12.59,0,0,1-6.84-5.65,10.1,10.1,0,0,1,1.08-11.46,11.41,11.41,0,0,1,4.73-3.45,7.94,7.94,0,0,1,5.68.25l-.2.46a5.63,5.63,0,0,1-.41-10l-.12.27a7.9,7.9,0,0,1,.4-5.11,9.72,9.72,0,0,1,3-3.89,11.37,11.37,0,0,1,8.85-1.78,16.72,16.72,0,0,1,7.38,3.53,30.53,30.53,0,0,1,4.94,5.18l-.2,0a14.61,14.61,0,0,1,7.34-1.68,15.64,15.64,0,0,1,5.48,1.19,14.44,14.44,0,0,1,3,1.74c.31.24.54.44.69.57s.23.2.22.21a2.48,2.48,0,0,1-.25-.17c-.17-.14-.41-.32-.71-.54a15.18,15.18,0,0,0-3-1.65,15.39,15.39,0,0,0-5.42-1.1,14.23,14.23,0,0,0-7.19,1.71l-.12.06-.08-.11a30,30,0,0,0-4.92-5.09,16.3,16.3,0,0,0-7.23-3.41,11,11,0,0,0-8.5,1.73,9.18,9.18,0,0,0-2.86,3.72,7.39,7.39,0,0,0-.37,4.8l.05.18-.16.1a5.13,5.13,0,0,0,.39,9.15l-.2.47a7.48,7.48,0,0,0-5.33-.24,10.94,10.94,0,0,0-4.5,3.31,9.6,9.6,0,0,0-1,10.87,12.1,12.1,0,0,0,6.56,5.41,15.21,15.21,0,0,0,8.37.4,18.5,18.5,0,0,0,7.38-3.44,12.85,12.85,0,0,0,4.53-6.24l.15-.47.28.4a17,17,0,0,0,8.95,6.35,15.46,15.46,0,0,0,10-.34,16.43,16.43,0,0,0,7.15-5.32,14.61,14.61,0,0,0,2.94-7,15.78,15.78,0,0,0-2.33-10.47A16.29,16.29,0,0,0,329.13,217.78Z" style="fill:#263238"></path><path d="M290.25,234.54c-1.05-1.08-2.19-1.56-2.19-3.07-1.9-.37-3.71.91-5.12,2.24a11.49,11.49,0,0,0-2.63,3.27,5,5,0,0,0-.25,4.09c.27.64.91,1.26,1.57,1.05.36-.11.65-.46,1-.45.58,0,.78.74,1.08,1.24a1.87,1.87,0,0,0,3.34-1.67c1,.91,2.69.34,3.72-.58a3.85,3.85,0,0,0,1.37-2.23C292.38,237,291.3,235.61,290.25,234.54Z" style="fill:#AC311C"></path><path d="M311,215.6a2,2,0,0,1,.23.8,7.57,7.57,0,0,1,0,2.29,19.9,19.9,0,0,1-2.66,7,22.71,22.71,0,0,0-2.76,6.77,14.91,14.91,0,0,0-.11,3,2.18,2.18,0,0,1-.23-.8,7.92,7.92,0,0,1,0-2.28,20.19,20.19,0,0,1,2.68-7,22.59,22.59,0,0,0,2.75-6.78A15.67,15.67,0,0,0,311,215.6Z" style="fill:#263238"></path><path d="M305,218c-.23-1,.59-2.81.6-3.13,0-.77-1.44-.53-2.09-.11s-1.11,1.07-1.74,1.5c-1.7,1.18-4.15.54-5.93,1.59a7.07,7.07,0,0,0-2.51,3.54c-.23.53-.44,1.21,0,1.62s.45-.1.82-.24.85-.49,1.21-.66c2.46-1.16,4.86-1.06,7.83.59.6-1.36,2.24-2.6,3.7-2.31A4.85,4.85,0,0,1,305,218Z" style="fill:#AC311C"></path><path d="M306.8,226.81a12.69,12.69,0,0,0-2.16-2.77,9.37,9.37,0,0,0-3.23-1.91,8.6,8.6,0,0,0-4.54-.32,8.46,8.46,0,0,0-4,2.16,9.4,9.4,0,0,0-2.17,3.07,13.29,13.29,0,0,0-.82,3.41,2.77,2.77,0,0,1-.07-1,7.84,7.84,0,0,1,.55-2.59,9.29,9.29,0,0,1,2.17-3.28,8.42,8.42,0,0,1,9-1.94,9.25,9.25,0,0,1,3.33,2.1,7.51,7.51,0,0,1,1.56,2.13A3.22,3.22,0,0,1,306.8,226.81Z" style="fill:#263238"></path><path d="M307.4,213.29c0,.07-.45.3-1,.92a5.28,5.28,0,0,0-1.19,2.89,2.65,2.65,0,0,0,.31,1.61,3.88,3.88,0,0,0,.94,1c.65.52,1.1.81,1.06.88a3.14,3.14,0,0,1-1.28-.58,3.88,3.88,0,0,1-1.13-1.1,3,3,0,0,1-.42-1.9,4.91,4.91,0,0,1,1.44-3.1C306.81,213.34,307.38,213.23,307.4,213.29Z" style="fill:#263238"></path><path d="M287.17,241.48a5.09,5.09,0,0,0,2.41-.2,3.29,3.29,0,0,0,1.83-1.71,3.42,3.42,0,0,0,0-3,11.61,11.61,0,0,0-2.07-2.52,5.51,5.51,0,0,1-1.46-2.4,2.73,2.73,0,0,1,.18-1.89c.22-.41.45-.54.46-.53s-.14.21-.28.61a2.81,2.81,0,0,0,0,1.72,5.58,5.58,0,0,0,1.46,2.16,11,11,0,0,1,2.19,2.62,3.84,3.84,0,0,1,0,3.45,3.6,3.6,0,0,1-2.13,1.85,3.65,3.65,0,0,1-1.9.11A1.31,1.31,0,0,1,287.17,241.48Z" style="fill:#263238"></path><g style="opacity:0.30000000000000004"><path d="M311.17,217.09a17.54,17.54,0,0,1-2,6.48,43.9,43.9,0,0,0-3,6.15c-.67,2.18-1,3.52-.49,5.73a12.24,12.24,0,0,1,.53-4,11.64,11.64,0,0,1,1.87-3c2-2.63,2.45-3.21,3.24-5.35C312,221.37,311.66,219.69,311.17,217.09Z"></path></g><path d="M285.55,223.58A8.87,8.87,0,0,0,284,208.65c-1.48-.74-3.26-1.13-4.24-2.46a8.88,8.88,0,0,1-1.08-3c-.86-3.18-3.18-6.17-6.38-7s-7.09,1.33-7.43,4.62a10.17,10.17,0,0,0-9.08,1,11.42,11.42,0,0,0-4.65,7.88,14.5,14.5,0,0,0-3.77,17.86,15.16,15.16,0,0,0,17.32,7.08,9.35,9.35,0,0,0,18,4.31,7.84,7.84,0,0,0,2.89-15.37Z" style="fill:#fff"></path><path d="M285.55,223.58a6.63,6.63,0,0,1,1.54.54,8.4,8.4,0,0,1,4.43,6.43,7.21,7.21,0,0,1-.69,4A8.46,8.46,0,0,1,287.7,238a8,8,0,0,1-5.07,1.19l.2-.11a9.59,9.59,0,0,1-3.85,4.38,9.47,9.47,0,0,1-14.51-8.79l.31.26a15.35,15.35,0,0,1-12.87-2.07,13.81,13.81,0,0,1-6-8.58,15.46,15.46,0,0,1-.35-3.66A14.95,14.95,0,0,1,251,209.5l-.09.16a14.14,14.14,0,0,1,1.65-4.71,9.78,9.78,0,0,1,3.38-3.5,10.42,10.42,0,0,1,9-.82l-.32.2a5.46,5.46,0,0,1,2.87-4.08,6.73,6.73,0,0,1,4.75-.76,8.17,8.17,0,0,1,4,2.33,11.2,11.2,0,0,1,2.29,3.69c.53,1.32.61,2.72,1.24,3.8a5.58,5.58,0,0,0,2.92,2.06,10.85,10.85,0,0,1,3.06,1.71,9.17,9.17,0,0,1,2.08,2.45,8.83,8.83,0,0,1,1.2,5.25,9.19,9.19,0,0,1-1.23,3.82,9,9,0,0,1-1.57,2,4.74,4.74,0,0,1-.67.53,10,10,0,0,0,2.11-2.56,9.23,9.23,0,0,0,1.14-3.76,8.55,8.55,0,0,0-1.23-5.08,8.79,8.79,0,0,0-2-2.35,10.43,10.43,0,0,0-3-1.64,5.91,5.91,0,0,1-3.1-2.19c-.7-1.2-.76-2.6-1.29-3.85a10.59,10.59,0,0,0-2.23-3.53,7.69,7.69,0,0,0-3.74-2.2,6.23,6.23,0,0,0-4.42.73,5,5,0,0,0-2.63,3.72l0,.31-.29-.11a10,10,0,0,0-8.61.81,9.41,9.41,0,0,0-3.21,3.33,13.55,13.55,0,0,0-1.57,4.53l0,.1-.08.06a14.5,14.5,0,0,0-5.27,10.69,15.34,15.34,0,0,0,.33,3.52,14.53,14.53,0,0,0,1.22,3.28,14.08,14.08,0,0,0,4.6,5,14.86,14.86,0,0,0,12.44,2l.34-.1,0,.35a9,9,0,0,0,13.82,8.4,9.25,9.25,0,0,0,3.71-4.18l.06-.13.14,0a7.67,7.67,0,0,0,4.84-1.11,8.11,8.11,0,0,0,3-3.27,6.93,6.93,0,0,0,.71-3.81,8.32,8.32,0,0,0-4.23-6.36A13.46,13.46,0,0,0,285.55,223.58Z" style="fill:#263238"></path><path d="M265,234a3.36,3.36,0,0,1,0-1.65,8.8,8.8,0,0,1,1.47-3.69,8.9,8.9,0,0,1,2.93-2.7,3.52,3.52,0,0,1,1.54-.58,11.33,11.33,0,0,1-1.35.89,10.33,10.33,0,0,0-4.23,6.15A9.85,9.85,0,0,1,265,234Z" style="fill:#263238"></path><path d="M251.44,208.52a16.32,16.32,0,0,0-.22,4.67,13.88,13.88,0,0,0,1.47,4.81,12.66,12.66,0,0,0,3.95,4.65c.83.65,2,1,2.62,2.08a2.94,2.94,0,0,1,.2,1.66,11.07,11.07,0,0,0-.14,1.45,6.28,6.28,0,0,0,2,4.41,7.21,7.21,0,0,0,2.89,1.72c.77.22,1.23.24,1.22.29s-.11,0-.33,0a4.57,4.57,0,0,1-.95-.12,6.82,6.82,0,0,1-3.08-1.65,6.58,6.58,0,0,1-2.21-4.67c0-1,.39-2.05,0-2.88s-1.54-1.2-2.46-1.88a12.91,12.91,0,0,1-4.08-4.87,13.69,13.69,0,0,1-1.41-5,11.52,11.52,0,0,1,.2-3.49,6.06,6.06,0,0,1,.26-.91A1.12,1.12,0,0,1,251.44,208.52Z" style="fill:#263238"></path><path d="M270.67,215.16c-.48-.47-1.06-.82-1.56-1.27-2-1.83-2.35-5.08-4.49-6.78a5.26,5.26,0,0,0-6.9.71,6.35,6.35,0,0,0-.7,7.12,8,8,0,0,0,6.19,3.94c2.53.26,4.67.47,6.77-1a1.16,1.16,0,0,0,1.44-1A2.19,2.19,0,0,0,270.67,215.16Z" style="fill:#AC311C"></path><path d="M276.6,205.31a6,6,0,0,0-3.21-3.46,2.28,2.28,0,0,0-2.34.16,2,2,0,0,0-.53,1.78,7.22,7.22,0,0,0,.63,1.83,20.09,20.09,0,0,1,1.42,10.5l1,.52c2.34-1.14,3.34-4,3.55-6.56A10.7,10.7,0,0,0,276.6,205.31Z" style="fill:#AC311C"></path><path d="M287.55,229a7,7,0,0,0-4.53-1.26,14.26,14.26,0,0,1-4.76-.45c-1.06-.38-2.11-1.36-1.88-2.47a5.46,5.46,0,0,1,.85-1.52,3.39,3.39,0,0,0-.2-3.6c-.76-1-2.77-.62-4-.34h0a3.51,3.51,0,0,0-2.7,2.1,3.57,3.57,0,0,0,2.14,4.49,1.19,1.19,0,0,0-.58,1.68,3.08,3.08,0,0,0,1.58,1.25,4.57,4.57,0,0,1,1.72,1.08c1,1.15.41,2.85,0,4.29a6,6,0,0,0,0,4,2.74,2.74,0,0,0,3.28,1.63c2.07-.82,1.73-4.2,3.59-5.44,1.7-1.13,4.36.16,5.9-1.19C289.18,232.14,288.77,230,287.55,229Z" style="fill:#AC311C"></path><path d="M285.65,223.48c-.06.14-1.77-.49-4-.69s-4,.09-4-.06a10.07,10.07,0,0,1,8,.75Z" style="fill:#263238"></path><path d="M272.5,216.64a29.6,29.6,0,0,0-.49-7.37,41.53,41.53,0,0,0-2.59-6.93,7.06,7.06,0,0,1,1.23,1.83,20.33,20.33,0,0,1,1.86,5,17.2,17.2,0,0,1,.4,5.31A6.61,6.61,0,0,1,272.5,216.64Z" style="fill:#263238"></path><g style="opacity:0.30000000000000004"><path d="M265.41,234.26c-3.58-.18-6.63-3.54-6.31-6.95a4.75,4.75,0,0,0,0-2.4,4.22,4.22,0,0,0-1.91-1.61,13.51,13.51,0,0,1-5.71-14.78s-1.61,2.53-1.13,7.42c.64,6.53,7.07,8.15,7.41,10.23s.29,4.77,1.66,6.63S265.41,234.26,265.41,234.26Z"></path></g><g style="opacity:0.30000000000000004"><path d="M274.42,208.87a9.34,9.34,0,0,0-3.68-6.45c-.18-.13-.44-.25-.61-.11s-.09.45,0,.67a22.33,22.33,0,0,1,2.4,13.3l.17-.1A11.56,11.56,0,0,0,274.42,208.87Z"></path></g><path d="M195,188.84a8.89,8.89,0,0,0-14.94,1.54c-.74,1.48-1.13,3.26-2.46,4.24a8.91,8.91,0,0,1-3,1.08c-3.19.86-6.18,3.17-7,6.38s1.34,7.09,4.62,7.43a10.17,10.17,0,0,0,1,9.08c1.73,2.64,4.62,4.08,7.87,4.65A14.52,14.52,0,0,0,199,227a15.18,15.18,0,0,0,7.09-17.32,9.35,9.35,0,0,0,4.31-17.95,7.84,7.84,0,0,0-15.37-2.9Z" style="fill:#fafafa"></path><path d="M195,188.84a5.74,5.74,0,0,1,.54-1.53,8.06,8.06,0,0,1,3.2-3.35,8.17,8.17,0,0,1,3.22-1.08,7.16,7.16,0,0,1,4,.69,8.43,8.43,0,0,1,3.42,3.13,8,8,0,0,1,1.19,5.07l-.11-.2a9.59,9.59,0,0,1,4.38,3.85A9.47,9.47,0,0,1,206,209.93l.25-.32a15.37,15.37,0,0,1-2.06,12.88,14.62,14.62,0,0,1-5.19,4.77,14.46,14.46,0,0,1-3.4,1.26,14.9,14.9,0,0,1-3.66.34,15,15,0,0,1-11.07-5.46l.16.09a14.14,14.14,0,0,1-4.71-1.65,9.86,9.86,0,0,1-3.5-3.38,10.46,10.46,0,0,1-.82-9l.2.32a5.48,5.48,0,0,1-4.08-2.87,6.69,6.69,0,0,1-.75-4.75,8.09,8.09,0,0,1,2.33-4,10.9,10.9,0,0,1,3.68-2.29c1.32-.54,2.72-.61,3.8-1.24a5.62,5.62,0,0,0,2.07-2.92,10.38,10.38,0,0,1,1.71-3.06,9.14,9.14,0,0,1,2.44-2.08,8.68,8.68,0,0,1,5.25-1.2,9.19,9.19,0,0,1,3.82,1.23,9,9,0,0,1,2,1.56,6.59,6.59,0,0,1,.54.67,10.33,10.33,0,0,0-2.57-2.1,9,9,0,0,0-3.76-1.14,8.53,8.53,0,0,0-5.08,1.22,9.18,9.18,0,0,0-2.35,2,10.37,10.37,0,0,0-1.64,3,5.89,5.89,0,0,1-2.19,3.11c-1.2.7-2.6.76-3.85,1.29a10.72,10.72,0,0,0-3.53,2.22,7.63,7.63,0,0,0-2.19,3.75,6.22,6.22,0,0,0,.72,4.42,5,5,0,0,0,3.73,2.63l.31,0-.12.29a10,10,0,0,0,.81,8.61,9.38,9.38,0,0,0,3.33,3.2,13.62,13.62,0,0,0,4.54,1.58l.09,0,.06.07A14.41,14.41,0,0,0,192,228.34a14.38,14.38,0,0,0,3.53-.33,13.31,13.31,0,0,0,8.27-5.81,14.86,14.86,0,0,0,2-12.44l-.1-.34.35,0a9.16,9.16,0,0,0,4.22-17.53l-.13,0,0-.14a7.59,7.59,0,0,0-1.11-4.84,8.21,8.21,0,0,0-3.27-3,6.92,6.92,0,0,0-3.81-.7,7.86,7.86,0,0,0-3.14,1,8.12,8.12,0,0,0-3.22,3.22A12.3,12.3,0,0,0,195,188.84Z" style="fill:#263238"></path><path d="M205.38,209.37a3.65,3.65,0,0,1-1.64,0,9,9,0,0,1-6.4-4.4,3.52,3.52,0,0,1-.58-1.54,9.24,9.24,0,0,1,.89,1.35,10.75,10.75,0,0,0,2.68,2.69,10.62,10.62,0,0,0,3.48,1.54A9.87,9.87,0,0,1,205.38,209.37Z" style="fill:#263238"></path><path d="M179.93,223a16.06,16.06,0,0,0,4.67.23,14,14,0,0,0,4.81-1.47,12.66,12.66,0,0,0,4.65-4c.66-.83,1-2,2.08-2.62a2.86,2.86,0,0,1,1.66-.2,13.11,13.11,0,0,0,1.45.14,6.32,6.32,0,0,0,4.41-2,7.21,7.21,0,0,0,1.72-2.89c.23-.77.24-1.23.29-1.22s0,.11,0,.33a4.41,4.41,0,0,1-.12.94,6.81,6.81,0,0,1-1.64,3.09,6.62,6.62,0,0,1-4.68,2.21c-1,0-2.05-.39-2.88,0s-1.2,1.54-1.88,2.45a12.83,12.83,0,0,1-4.86,4.09,14,14,0,0,1-5,1.41,11.52,11.52,0,0,1-3.49-.2,6.44,6.44,0,0,1-.91-.26C180,223,179.93,223,179.93,223Z" style="fill:#263238"></path><path d="M186.57,203.73c-.47.48-.82,1.06-1.27,1.56-1.83,2-5.08,2.35-6.78,4.49a5.27,5.27,0,0,0,.71,6.9,6.35,6.35,0,0,0,7.12.7,8,8,0,0,0,3.94-6.19c.26-2.54.47-4.67-1-6.78a1.16,1.16,0,0,0-1-1.44A2.2,2.2,0,0,0,186.57,203.73Z" style="fill:#AC311C"></path><path d="M176.72,197.79a6.08,6.08,0,0,0-3.46,3.21,2.29,2.29,0,0,0,.16,2.35,2,2,0,0,0,1.78.53,7.09,7.09,0,0,0,1.83-.63,20.09,20.09,0,0,1,10.5-1.42l.52-1c-1.14-2.34-4-3.34-6.55-3.55A10.87,10.87,0,0,0,176.72,197.79Z" style="fill:#AC311C"></path><path d="M200.4,186.85a7.06,7.06,0,0,0-1.26,4.53,14.06,14.06,0,0,1-.45,4.76c-.38,1.06-1.36,2.11-2.47,1.88a5.72,5.72,0,0,1-1.52-.85,3.39,3.39,0,0,0-3.6.2c-1,.76-.62,2.77-.34,4h0a3.51,3.51,0,0,0,2.1,2.7,3.56,3.56,0,0,0,4.49-2.15,1.19,1.19,0,0,0,1.69.58,3,3,0,0,0,1.24-1.57,4.69,4.69,0,0,1,1.08-1.73c1.15-1,2.85-.4,4.3,0a5.91,5.91,0,0,0,4,0,2.74,2.74,0,0,0,1.63-3.27c-.82-2.08-4.21-1.73-5.45-3.59-1.13-1.71.16-4.36-1.19-5.9C203.55,185.22,201.43,185.62,200.4,186.85Z" style="fill:#AC311C"></path><path d="M194.89,188.75c.14.06-.49,1.77-.69,4s.1,4-.06,4a10.18,10.18,0,0,1,.75-8Z" style="fill:#263238"></path><path d="M188.05,201.9a29.53,29.53,0,0,0-7.36.49c-4,.91-6.85,2.74-6.94,2.58a7.17,7.17,0,0,1,1.84-1.22,20.06,20.06,0,0,1,5-1.87,17.84,17.84,0,0,1,5.31-.4A6.35,6.35,0,0,1,188.05,201.9Z" style="fill:#263238"></path><g style="opacity:0.30000000000000004"><path d="M205.67,209c-.18,3.58-3.54,6.63-6.95,6.31a4.75,4.75,0,0,0-2.4,0,4.23,4.23,0,0,0-1.61,1.91,13.49,13.49,0,0,1-14.78,5.7s2.54,1.62,7.42,1.14c6.53-.64,8.15-7.07,10.23-7.41s4.78-.29,6.64-1.66S205.67,209,205.67,209Z"></path></g><g style="opacity:0.30000000000000004"><path d="M180.29,200a9.31,9.31,0,0,0-6.45,3.69c-.13.18-.26.43-.12.61s.46.09.67,0a22.33,22.33,0,0,1,13.3-2.41l-.1-.16A11.54,11.54,0,0,0,180.29,200Z"></path></g><path d="M235.64,220.42a12.48,12.48,0,0,0-8.49-1.37,10.78,10.78,0,0,0-6.75,4.23,5.31,5.31,0,0,0,2.69,5.34,8.57,8.57,0,0,0,6.18.69,23.56,23.56,0,0,0,5.84-2.47c1.33-.72,2.81-1.71,2.89-3.21S236.86,221.11,235.64,220.42Z" style="fill:#AC311C"></path><g style="opacity:0.30000000000000004"><path d="M222.06,226.73l.12.92a2.12,2.12,0,0,0,1.55,1.33,5.7,5.7,0,0,0,2.1,0,25.1,25.1,0,0,0,6.79-1.67,11.64,11.64,0,0,0,5.38-4.42A18.94,18.94,0,0,0,222.06,226.73Z"></path></g><path d="M244.67,224.77c-6.09-3.43-13.78-1-19.93,2.31l-1.2.75c-1.59-1.7-3.23-3.49-3.8-5.74s.33-5.06,2.53-5.8c1.87-.63,4.14.36,5.8-.7a3.5,3.5,0,0,0,1-4.38,6.79,6.79,0,0,0-3.66-3.09,13.51,13.51,0,0,0-16.88,6.74,7.86,7.86,0,0,0-7.79,13.49,11.62,11.62,0,0,0-.72,12.27,12.17,12.17,0,0,0,21.74,6.67,21,21,0,0,0,16.54,3.77c5.69-1.25,10.75-5.57,12.3-11.18S249.75,227.63,244.67,224.77Z" style="fill:#fafafa"></path><path d="M244.67,224.77a1,1,0,0,1,.22.12l.63.37c.27.17.58.42,1,.71a12.23,12.23,0,0,1,1.18,1.14,13.16,13.16,0,0,1,2.43,3.86,14.17,14.17,0,0,1,1.08,6.05,13.9,13.9,0,0,1-2.43,7.18A17,17,0,0,1,242,250a18,18,0,0,1-10,1.57,22.55,22.55,0,0,1-10.39-4.08l.31,0a12.42,12.42,0,0,1-22.18-6.79l0,.11a11.91,11.91,0,0,1,.69-12.48l0-.07.05.36a8.12,8.12,0,0,1,8.05-13.93l-.33.13a13.28,13.28,0,0,1,2.05-3.14,14.08,14.08,0,0,1,2.81-2.37,14.41,14.41,0,0,1,6.73-2.22,12.38,12.38,0,0,1,6.65,1.38,6.52,6.52,0,0,1,2.48,2.24,4.11,4.11,0,0,1,.51,3.22,3.24,3.24,0,0,1-.77,1.45,3.08,3.08,0,0,1-1.41.83,10.84,10.84,0,0,1-3,.13,4.53,4.53,0,0,0-2.68.55,4.09,4.09,0,0,0-1.56,2.12,5.55,5.55,0,0,0-.23,2.58,7.28,7.28,0,0,0,.85,2.38,20.39,20.39,0,0,0,3,3.81l-.21,0c6-3.67,11.77-5,15.61-4.63a13.55,13.55,0,0,1,4.27,1,12.1,12.1,0,0,1,1.34.69,1.82,1.82,0,0,1-.35-.15c-.24-.09-.56-.28-1-.46a14.23,14.23,0,0,0-4.24-.92c-3.8-.29-9.46,1.06-15.43,4.73l-.11.08-.1-.1a20.21,20.21,0,0,1-3-3.86,7.56,7.56,0,0,1-.91-2.5,5.91,5.91,0,0,1,.23-2.76,4.44,4.44,0,0,1,1.7-2.34,5,5,0,0,1,2.92-.63,9.79,9.79,0,0,0,2.92-.13,2.59,2.59,0,0,0,1.87-2,3.69,3.69,0,0,0-.48-2.88,6.07,6.07,0,0,0-2.31-2.06,11.72,11.72,0,0,0-6.4-1.31,13.86,13.86,0,0,0-6.5,2.15,14,14,0,0,0-2.7,2.29,13.1,13.1,0,0,0-2,3l-.1.23-.23-.09a7.6,7.6,0,0,0-7.53,13.05l.2.15-.15.21,0,.07a11.38,11.38,0,0,0-.67,11.91l0,0v.06a11.94,11.94,0,0,0,21.31,6.55l.14-.18.18.13a22.15,22.15,0,0,0,10.17,4,17.6,17.6,0,0,0,9.75-1.49,16.58,16.58,0,0,0,6.66-5.63,13.47,13.47,0,0,0,2.43-7,14,14,0,0,0-1-5.95,13,13,0,0,0-5.22-6.28Z" style="fill:#263238"></path><path d="M222.66,228.38A28.81,28.81,0,0,0,220,226a13.92,13.92,0,0,0-16.19-.19,30.28,30.28,0,0,0-2.77,2.31,3.25,3.25,0,0,1,.58-.8,12.43,12.43,0,0,1,2-1.81,13.67,13.67,0,0,1,16.62.19,12.15,12.15,0,0,1,1.94,1.87A2.7,2.7,0,0,1,222.66,228.38Z" style="fill:#263238"></path><path d="M213,223.05a2.91,2.91,0,0,1-1.39-.62,7.56,7.56,0,0,1-3.23-6.35,3,3,0,0,1,.31-1.49,8.86,8.86,0,0,1,.06,1.48,8.45,8.45,0,0,0,.91,3.35,8.92,8.92,0,0,0,2.17,2.72C212.51,222.71,213,223,213,223.05Z" style="fill:#263238"></path><g style="opacity:0.30000000000000004"><path d="M222.29,246a19.61,19.61,0,0,1,.91-16.37s-3.88,4.71-3.46,9.34A12.88,12.88,0,0,0,222.29,246Z"></path></g><path d="M222.29,246a7.71,7.71,0,0,1-.94-2.31,18.17,18.17,0,0,1-.66-6,18.36,18.36,0,0,1,1.32-5.88,7.65,7.65,0,0,1,1.19-2.19,22.62,22.62,0,0,0-.91,16.37Z" style="fill:#263238"></path><path d="M209.15,240.93c0,.06-.42.39-1.26.71a8.7,8.7,0,0,1-6.83-.38c-.8-.41-1.21-.79-1.17-.84a16.32,16.32,0,0,0,4.58,1.21A15.74,15.74,0,0,0,209.15,240.93Z" style="fill:#263238"></path><path d="M334,200.71a18.72,18.72,0,0,0-2.39-7c-1.37-2-3.77-3.6-6.21-3.28A8.45,8.45,0,0,0,309,191.54c-3.92-4.4-9.75-7.91-15.61-7.39a17.36,17.36,0,0,0-14,9.51,15.79,15.79,0,0,0,2,16.6,14.5,14.5,0,0,0,16,4.13,10.21,10.21,0,0,0,6,6.16,26.72,26.72,0,0,0,8.65,1.71c3.66.27,7.56.37,10.73-1.49s5-6.38,2.83-9.33a4.48,4.48,0,0,0,5.72.83,7.22,7.22,0,0,0,3.12-5.27A19.38,19.38,0,0,0,334,200.71Z" style="fill:#fff"></path><path d="M334,200.71a1.29,1.29,0,0,1,.08.32c.05.23.12.55.2.94a20.42,20.42,0,0,1,.38,3.71,8.55,8.55,0,0,1-1.92,5.59,5.11,5.11,0,0,1-3.32,1.78,4.31,4.31,0,0,1-3.92-1.51l.26-.2a5.5,5.5,0,0,1,.84,1.8,6.16,6.16,0,0,1,.11,2.06,8,8,0,0,1-1.75,4,8.5,8.5,0,0,1-3.81,2.61,15.81,15.81,0,0,1-4.84.85,45,45,0,0,1-5.15-.2,31.65,31.65,0,0,1-5.35-.81,14,14,0,0,1-5.15-2.38,9.37,9.37,0,0,1-3.45-4.76l.33.16a14.54,14.54,0,0,1-11.82-.69,14.15,14.15,0,0,1-4.89-4,13.57,13.57,0,0,1-1.67-2.79,14.07,14.07,0,0,1-1.05-3.11,16,16,0,0,1,2.11-12.23,17.63,17.63,0,0,1,9.52-7.13,15.72,15.72,0,0,1,5.71-.75,16.74,16.74,0,0,1,5.4,1.34,24.54,24.54,0,0,1,8.33,6.16l-.38.11a8.8,8.8,0,0,1,3.43-5.4,8.33,8.33,0,0,1,5.65-1.7,8.88,8.88,0,0,1,5,2.06,8.58,8.58,0,0,1,2.7,4l-.16-.11a5.8,5.8,0,0,1,3.29.63A7.89,7.89,0,0,1,331,192.8a11.27,11.27,0,0,1,2.17,4.11,22.24,22.24,0,0,1,.83,3.8s0-.08-.07-.24l-.16-.72c-.15-.64-.36-1.59-.75-2.79a11.4,11.4,0,0,0-2.19-4,7.52,7.52,0,0,0-2.28-1.75,5.47,5.47,0,0,0-3.13-.57h-.12l0-.12a8.23,8.23,0,0,0-2.64-3.8,8.52,8.52,0,0,0-4.77-1.95,8,8,0,0,0-5.38,1.65,8.48,8.48,0,0,0-3.24,5.15l-.08.44-.3-.33a24.06,24.06,0,0,0-8.18-6,16.07,16.07,0,0,0-5.25-1.3,15.69,15.69,0,0,0-5.53.74,17.24,17.24,0,0,0-9.24,6.94,15.5,15.5,0,0,0-2,11.84,14.4,14.4,0,0,0,1,3,13,13,0,0,0,1.61,2.68,13.71,13.71,0,0,0,4.71,3.9,14.09,14.09,0,0,0,11.41.68l.25-.1.08.26a9,9,0,0,0,3.26,4.52,13.75,13.75,0,0,0,5,2.31,32.46,32.46,0,0,0,5.28.81,44.36,44.36,0,0,0,5.1.22,15.45,15.45,0,0,0,4.71-.8,8,8,0,0,0,3.65-2.48,7.52,7.52,0,0,0,1.69-3.74,6,6,0,0,0-.08-1.94,5.15,5.15,0,0,0-.77-1.68l.26-.2a4,4,0,0,0,3.63,1.41,4.89,4.89,0,0,0,3.16-1.65,8.39,8.39,0,0,0,1.93-5.42,22.15,22.15,0,0,0-.29-3.69c-.07-.4-.12-.72-.15-1A1.86,1.86,0,0,1,334,200.71Z" style="fill:#263238"></path><path d="M304.08,197.56s.16.22.36.66a10.69,10.69,0,0,1,.59,1.94,13,13,0,0,1-.42,6.66,12.1,12.1,0,0,1-3.75,5.53,7,7,0,0,1-2.36,1.45c0-.08.88-.59,2.12-1.73a12.78,12.78,0,0,0,3.49-5.41,13.67,13.67,0,0,0,.55-6.43C304.43,198.56,304,197.6,304.08,197.56Z" style="fill:#263238"></path><path d="M326.32,190.43a13.63,13.63,0,0,1-1.77.2A10.82,10.82,0,0,0,320.6,192a10.56,10.56,0,0,0-3.09,2.85,15.38,15.38,0,0,1-1,1.47,4.06,4.06,0,0,1,.69-1.68,9.28,9.28,0,0,1,3.13-3.08,9.38,9.38,0,0,1,4.18-1.34A4,4,0,0,1,326.32,190.43Z" style="fill:#263238"></path><g style="opacity:0.30000000000000004"><path d="M319.2,191.28a7.89,7.89,0,0,0-3,5.64,10.17,10.17,0,0,1,9-6.59A6.25,6.25,0,0,0,319.2,191.28Z"></path></g><g style="opacity:0.30000000000000004"><path d="M299.18,213.22a9.38,9.38,0,0,0,5.72-13.37,13.52,13.52,0,0,1-5.54,13.38"></path></g><path d="M211.37,224C210,217.8,204.27,213,198,212.2s-11.89,2.88-15.65,8a21,21,0,0,0-22.57,1.49,8.17,8.17,0,0,0-2.82,3.3,3.8,3.8,0,0,0,.64,4.1c1.88,1.81,5,.44,7.16-1a16.71,16.71,0,0,0-2.89,7.1,8,8,0,0,0,2.45,7c2,1.65,5.24,1.79,7-.07-2.17,4.36-.35,10,3.45,13.06,4.92,3.92,11.83,3.78,18.11,3.44,2.62-.13,5.67-.53,7-2.8,3.42.35,6.23-3.15,6.45-6.57s-1.38-6.67-2.94-9.72C209.27,237.25,212.73,230.2,211.37,224Z" style="fill:#fff"></path><path d="M211.37,224a1.49,1.49,0,0,1,.07.31c0,.21.12.53.18.95a13.73,13.73,0,0,1-.06,3.71,14.66,14.66,0,0,1-2.09,5.58,13.07,13.07,0,0,1-6.06,5.16l.08-.22a44.14,44.14,0,0,1,1.92,4.07,14.33,14.33,0,0,1,1.08,4.85,8,8,0,0,1-1.6,5.12,5.78,5.78,0,0,1-5.07,2.54L200,256a5.73,5.73,0,0,1-3.84,2.5,25.85,25.85,0,0,1-4.75.49,40.47,40.47,0,0,1-10.06-.51,14.35,14.35,0,0,1-9.07-5.51,11.94,11.94,0,0,1-2.07-5.22,9.7,9.7,0,0,1,.84-5.67l.41.29a5.22,5.22,0,0,1-4.88,1.29,5.83,5.83,0,0,1-2.41-1.14,6.61,6.61,0,0,1-1.7-2.09,9.33,9.33,0,0,1-.7-6.55,19,19,0,0,1,2.7-5.88l.36.35a14.15,14.15,0,0,1-2.52,1.34,6.43,6.43,0,0,1-2.82.55,3.4,3.4,0,0,1-2.52-1.38,4,4,0,0,1-.61-2.76,7.07,7.07,0,0,1,3-4.44,20.67,20.67,0,0,1,4.52-2.6,21.3,21.3,0,0,1,18.48,1l-.28.06a22.69,22.69,0,0,1,5.92-5.64A15.61,15.61,0,0,1,195,212a14.68,14.68,0,0,1,6.35.85,16.46,16.46,0,0,1,4.73,2.66,15.35,15.35,0,0,1,4.56,6,12.72,12.72,0,0,1,.63,1.88c.1.43.14.66.14.66s-.08-.22-.21-.65a13.42,13.42,0,0,0-.67-1.84,15.4,15.4,0,0,0-4.6-5.81,16.38,16.38,0,0,0-4.67-2.58,14.66,14.66,0,0,0-6.23-.78,15.39,15.39,0,0,0-6.73,2.42,22.38,22.38,0,0,0-5.78,5.57l-.11.15-.16-.1a20.91,20.91,0,0,0-18.08-.92,20.54,20.54,0,0,0-4.41,2.55,6.62,6.62,0,0,0-2.83,4.11,3.43,3.43,0,0,0,.52,2.41,2.86,2.86,0,0,0,2.15,1.16,9.08,9.08,0,0,0,5-1.81l1-.63-.64,1a18.41,18.41,0,0,0-2.62,5.71,8.88,8.88,0,0,0,.65,6.2,5.54,5.54,0,0,0,3.77,3,4.68,4.68,0,0,0,4.39-1.14l1.14-1.18-.72,1.48a9.31,9.31,0,0,0-.8,5.37,11.46,11.46,0,0,0,2,5,13.74,13.74,0,0,0,8.75,5.32,39.9,39.9,0,0,0,9.94.53,25.24,25.24,0,0,0,4.67-.46,5.3,5.3,0,0,0,3.57-2.28l.07-.12h.14a5.36,5.36,0,0,0,4.7-2.35,7.66,7.66,0,0,0,1.54-4.87,13.83,13.83,0,0,0-1-4.73,43.78,43.78,0,0,0-1.87-4.06l-.08-.16.16-.06a12.79,12.79,0,0,0,6-5,14.56,14.56,0,0,0,2.13-5.46,14.72,14.72,0,0,0,.14-3.68l-.13-1A1.29,1.29,0,0,1,211.37,224Z" style="fill:#263238"></path><path d="M197.4,238.46a2.9,2.9,0,0,1-.92-.22,9,9,0,0,1-1-.39,12.46,12.46,0,0,1-1.34-.61,19,19,0,0,1-3.25-2.07,21.17,21.17,0,0,1-5.92-7.28,19.82,19.82,0,0,1-1.36-3.6,13,13,0,0,1-.32-1.45,6.47,6.47,0,0,1-.16-1.1,3.62,3.62,0,0,1,0-1c.1,0,.24,1.33.88,3.39a22.05,22.05,0,0,0,1.43,3.49,24.57,24.57,0,0,0,2.53,3.87,25.07,25.07,0,0,0,3.26,3.26,23.38,23.38,0,0,0,3.12,2.12C196.15,238,197.44,238.37,197.4,238.46Z" style="fill:#263238"></path><path d="M191.78,253.23c-.07-.06.54-.71,1.31-1.9a15.61,15.61,0,0,0,2.12-5.06,15.94,15.94,0,0,0,.23-5.49c-.2-1.4-.47-2.25-.39-2.27a6,6,0,0,1,.75,2.21,14,14,0,0,1-2.4,10.82A6.44,6.44,0,0,1,191.78,253.23Z" style="fill:#263238"></path><g style="opacity:0.30000000000000004"><path d="M183.16,221.44a14.62,14.62,0,0,0,1.27,7.41,18,18,0,0,0-8.14,8,16,16,0,0,1,6.21-5.37,3.14,3.14,0,0,1,1.85-.42,3.38,3.38,0,0,1,1.29.63c1.78,1.22,4,2.58,5.75,3.79a51.24,51.24,0,0,1-5.39-5.84,21,21,0,0,1-2.84-8.17"></path></g><path d="M173.6,223.67c0,.16-2.21.74-4.71,2.08s-4.24,2.87-4.35,2.75a15.1,15.1,0,0,1,9.06-4.83Z" style="fill:#263238"></path><path d="M175.2,237.52a18.19,18.19,0,0,1-3.86,4.75,18.19,18.19,0,0,1,3.86-4.75Z" style="fill:#263238"></path></g><g id="freepik--box--inject-46"><polygon points="148.11 240.43 186.28 477.43 322.79 477.43 352.47 240.43 148.11 240.43" style="fill:#f5f5f5"></polygon><polygon points="161.53 247.77 190.95 477.48 202.6 477.48 177.92 247.77 161.53 247.77" style="fill:#AC311C"></polygon><polygon points="192.36 247.72 216.8 477.43 228.45 477.43 208.75 247.72 192.36 247.72" style="fill:#AC311C"></polygon><polygon points="226 247.72 239.84 477.43 251.49 477.43 242.39 247.72 226 247.72" style="fill:#AC311C"></polygon><polygon points="258.89 247.72 263.63 477.43 275.28 477.43 275.28 247.72 258.89 247.72" style="fill:#AC311C"></polygon><polygon points="288.68 247.72 285.78 477.43 297.43 477.43 305.06 247.72 288.68 247.72" style="fill:#AC311C"></polygon><polygon points="323.96 247.72 307.17 477.43 318.82 477.43 340.35 247.72 323.96 247.72" style="fill:#AC311C"></polygon><circle cx="250.29" cy="355.05" r="54.24" style="fill:#AC311C"></circle><path d="M304.53,355.05s0-.3-.07-.88-.08-1.46-.15-2.58c0-.57-.07-1.2-.11-1.9s-.22-1.44-.34-2.26l-.42-2.64a8.5,8.5,0,0,0-.3-1.45l-.4-1.51a51.7,51.7,0,0,0-6-14.41A53.81,53.81,0,0,0,283,312.08l-2.34-1.75c-.82-.54-1.68-1-2.54-1.56l-1.29-.78a10.32,10.32,0,0,0-1.34-.74l-2.81-1.35c-.47-.22-.94-.46-1.43-.67l-1.49-.55-3-1.11c-1-.34-2.12-.56-3.19-.85a25.42,25.42,0,0,0-3.27-.74,50.78,50.78,0,0,0-6.83-.8c-1.16,0-2.34-.15-3.52-.13l-3.57.18c-.6,0-1.21,0-1.81.12l-1.8.27c-1.2.2-2.42.34-3.63.59a56.85,56.85,0,0,0-7.2,2.12l-1.8.65-.89.34-.87.42-3.49,1.68c-1.14.62-2.23,1.34-3.36,2-.55.35-1.14.65-1.67,1.05l-1.59,1.19a61.11,61.11,0,0,0-6.12,5.21l-2.75,3-.69.76-.62.82-1.23,1.65-1.25,1.66-1.08,1.78-1.09,1.79-.54.9c-.17.3-.31.63-.47.94-.6,1.26-1.22,2.53-1.83,3.81s-1,2.66-1.46,4a53.49,53.49,0,0,0,0,34.07l1.47,4,1.83,3.8.46.95.55.9,1.08,1.78,1.09,1.78,1.24,1.66,1.24,1.66.62.82.69.76,2.74,3a60.12,60.12,0,0,0,6.13,5.21l1.59,1.19c.53.4,1.12.7,1.67,1.05,1.13.67,2.22,1.39,3.36,2l3.49,1.68.87.42c.29.13.6.23.89.34l1.8.66a56.79,56.79,0,0,0,7.2,2.11c1.21.25,2.43.39,3.63.59l1.8.27c.6.08,1.21.08,1.81.12l3.57.18c1.19,0,2.36-.09,3.53-.13a51.16,51.16,0,0,0,6.83-.8,25.8,25.8,0,0,0,3.27-.74c1.07-.29,2.15-.51,3.18-.85l3-1.11,1.5-.55,1.42-.67,2.81-1.35c.94-.43,1.76-1,2.64-1.53s1.72-1,2.54-1.55L283,398a53.81,53.81,0,0,0,13.74-15.34,51.7,51.7,0,0,0,6-14.41l.4-1.51a9.64,9.64,0,0,0,.31-1.45c.14-.94.28-1.82.41-2.64s.27-1.57.34-2.26.08-1.33.11-1.9q.1-1.68.15-2.58c0-.58.07-.87.07-.87s0,.29,0,.87-.06,1.46-.11,2.59c0,.56-.05,1.2-.08,1.9s-.2,1.45-.32,2.27-.25,1.71-.39,2.66a8.7,8.7,0,0,1-.3,1.45l-.38,1.52A51.51,51.51,0,0,1,297,382.82a54.14,54.14,0,0,1-13.76,15.49l-2.35,1.76c-.83.54-1.7,1-2.56,1.57a28.72,28.72,0,0,1-2.65,1.55l-2.82,1.36-1.43.69-1.51.55-3.06,1.13c-1,.34-2.13.57-3.21.86a28,28,0,0,1-3.29.76,51.87,51.87,0,0,1-6.89.81c-1.17,0-2.36.16-3.55.15l-3.6-.18c-.61,0-1.22,0-1.82-.12l-1.82-.27c-1.21-.2-2.45-.34-3.67-.59a58.84,58.84,0,0,1-7.27-2.12l-1.81-.66-.9-.34-.88-.42-3.52-1.7c-1.15-.62-2.25-1.35-3.39-2-.56-.36-1.16-.66-1.69-1.06l-1.61-1.2a62.19,62.19,0,0,1-6.18-5.25L209,390.52l-.69-.77-.63-.83-1.25-1.67-1.25-1.67-1.1-1.8L203,382l-.55-.91-.47-.95c-.61-1.28-1.23-2.56-1.85-3.84s-1-2.69-1.48-4a54,54,0,0,1,0-34.4c.5-1.35,1-2.69,1.49-4s1.23-2.57,1.85-3.85c.15-.32.3-.64.46-.95l.55-.91,1.1-1.8,1.1-1.79,1.25-1.68,1.25-1.67.63-.83.7-.76,2.77-3.05a61.18,61.18,0,0,1,6.19-5.25l1.6-1.2c.53-.4,1.13-.7,1.69-1.06,1.14-.67,2.24-1.4,3.39-2l3.52-1.7.88-.42.9-.34,1.81-.66a58.84,58.84,0,0,1,7.27-2.12c1.22-.25,2.45-.39,3.67-.58l1.81-.28c.61-.08,1.22-.07,1.82-.12l3.61-.17c1.19,0,2.37.1,3.55.14a51.52,51.52,0,0,1,6.88.81,27.74,27.74,0,0,1,3.3.76c1.07.29,2.16.52,3.2.86l3.06,1.13,1.51.55c.49.22,1,.46,1.44.69l2.82,1.36a11.07,11.07,0,0,1,1.35.75l1.3.79c.86.54,1.73,1,2.55,1.58l2.35,1.76A54.19,54.19,0,0,1,297,327.27a51.51,51.51,0,0,1,5.95,14.51l.38,1.52a8.7,8.7,0,0,1,.3,1.45c.14.95.27,1.83.39,2.66s.26,1.57.32,2.27.06,1.34.08,1.91c0,1.12.08,2,.11,2.58S304.53,355.05,304.53,355.05Z" style="fill:#263238"></path><path d="M250.29,412.29a57.25,57.25,0,1,1,57.24-57.24A57.31,57.31,0,0,1,250.29,412.29Zm0-108.49a51.25,51.25,0,1,0,51.24,51.25A51.31,51.31,0,0,0,250.29,303.8Z" style="fill:#f5f5f5"></path><path d="M250.29,412.29a57.25,57.25,0,1,1,57.24-57.24A57.31,57.31,0,0,1,250.29,412.29Zm0-108.49a51.25,51.25,0,1,0,51.24,51.25A51.31,51.31,0,0,0,250.29,303.8Z" style="fill:none"></path><path d="M250.29,303.8l.83,0,2.44.1,1.8.07c.66.07,1.37.2,2.15.3l2.5.37a8.59,8.59,0,0,1,1.37.29l1.44.36a48.58,48.58,0,0,1,13.7,5.63,51.16,51.16,0,0,1,14.63,13l1.67,2.22c.51.78,1,1.6,1.49,2.41s1.05,1.62,1.46,2.51l1.29,2.66c.21.45.43.9.65,1.36s.35.94.52,1.42c.36,1,.71,1.92,1.07,2.89s.54,2,.82,3a27,27,0,0,1,.72,3.11,49.53,49.53,0,0,1,.77,6.5c0,1.11.15,2.23.13,3.36s-.11,2.26-.17,3.4c0,.57,0,1.15-.11,1.72l-.26,1.72c-.19,1.14-.32,2.31-.56,3.46a54.13,54.13,0,0,1-2,6.87l-.63,1.7c-.11.29-.2.58-.32.86l-.4.82c-.53,1.11-1.06,2.22-1.6,3.33s-1.27,2.13-1.91,3.21c-.34.52-.63,1.09-1,1.59l-1.13,1.52a59.17,59.17,0,0,1-5,5.84l-2.88,2.62-.72.66-.79.59-1.57,1.18-1.59,1.19c-.55.35-1.12.69-1.69,1l-1.7,1-.86.52c-.29.16-.6.3-.9.44l-3.63,1.76-3.81,1.4a50.75,50.75,0,0,1-32.49,0l-3.81-1.4-3.63-1.75-.9-.44-.86-.52-1.7-1-1.7-1-1.58-1.19-1.58-1.18-.78-.59-.72-.66-2.88-2.62a57.84,57.84,0,0,1-5-5.84l-1.14-1.52c-.38-.5-.67-1.06-1-1.59-.64-1.08-1.32-2.12-1.92-3.21s-1.07-2.22-1.6-3.32l-.4-.83c-.12-.28-.21-.57-.32-.86-.21-.57-.41-1.14-.62-1.7a54.18,54.18,0,0,1-2-6.87c-.24-1.15-.37-2.32-.56-3.46l-.26-1.72c-.08-.57-.07-1.15-.11-1.72-.06-1.14-.11-2.28-.17-3.4s.1-2.25.14-3.36a47.51,47.51,0,0,1,.77-6.5,27,27,0,0,1,.71-3.11c.28-1,.5-2.05.83-3s.71-1.94,1.06-2.89l.53-1.43c.21-.45.43-.9.65-1.35q.65-1.35,1.29-2.67c.41-.89,1-1.67,1.46-2.5s1-1.63,1.49-2.41l1.66-2.22a51.34,51.34,0,0,1,14.63-13,49.06,49.06,0,0,1,13.7-5.62l1.44-.36a8.83,8.83,0,0,1,1.37-.29l2.51-.37c.77-.1,1.49-.23,2.15-.3l1.79-.07,2.44-.1.83,0-.83.07L247,304l-1.79.1c-.66.07-1.37.21-2.14.33l-2.5.39a8.71,8.71,0,0,0-1.36.29l-1.43.38a48.83,48.83,0,0,0-13.6,5.67,51,51,0,0,0-14.48,13c-.55.72-1.1,1.46-1.65,2.2s-1,1.59-1.47,2.4-1,1.6-1.45,2.49l-1.27,2.64-.64,1.35c-.17.47-.34.94-.52,1.42-.34.94-.69,1.9-1,2.87s-.53,2-.8,3a24.32,24.32,0,0,0-.71,3.09,47,47,0,0,0-.75,6.45c0,1.1-.14,2.21-.13,3.32s.12,2.24.18,3.38c0,.56,0,1.14.11,1.7l.26,1.7c.19,1.14.32,2.29.56,3.43a52.67,52.67,0,0,0,2,6.8c.21.56.41,1.13.62,1.69.11.29.2.57.32.85l.39.82c.53,1.09,1.06,2.19,1.6,3.29s1.26,2.11,1.89,3.18c.34.52.62,1.08,1,1.57l1.13,1.5a58.08,58.08,0,0,0,4.91,5.79l2.86,2.59.72.65.77.59,1.56,1.16,1.57,1.18,1.68,1,1.69,1,.84.52.89.43,3.6,1.74,3.77,1.38A54.17,54.17,0,0,0,250.3,406a54.75,54.75,0,0,0,16.08-2.64l3.77-1.39,3.6-1.73c.29-.15.6-.28.89-.44l.84-.51,1.69-1c.56-.34,1.13-.67,1.68-1l1.57-1.17,1.56-1.17c.26-.19.52-.38.77-.58l.72-.66,2.85-2.59a56.77,56.77,0,0,0,4.92-5.78l1.12-1.5c.38-.5.67-1.05,1-1.58.63-1.06,1.31-2.09,1.9-3.17l1.59-3.29.39-.82c.12-.28.22-.57.32-.85.21-.56.42-1.13.62-1.69a52.21,52.21,0,0,0,2-6.8c.24-1.14.37-2.29.56-3.43l.27-1.7c.07-.56.07-1.13.11-1.7.05-1.13.11-2.26.17-3.38s-.09-2.22-.13-3.32a47,47,0,0,0-.75-6.45,26.61,26.61,0,0,0-.7-3.09c-.28-1-.48-2-.81-3s-.7-1.92-1-2.87l-.51-1.42c-.22-.45-.43-.9-.65-1.34-.42-.89-.85-1.78-1.27-2.65s-1-1.66-1.44-2.49-1-1.62-1.47-2.4l-1.65-2.2a51,51,0,0,0-14.49-13,48.58,48.58,0,0,0-13.6-5.68l-1.43-.38a8.48,8.48,0,0,0-1.36-.29l-2.49-.39c-.78-.12-1.49-.26-2.15-.33l-1.79-.1-2.43-.15Z" style="fill:#263238"></path><path d="M250.29,412.29s.32,0,.93-.05,1.53,0,2.72-.13a58.38,58.38,0,0,0,10.31-1.65,57.47,57.47,0,0,0,31.42-20.88,57,57,0,0,0,10.66-24,57,57,0,1,0-112.07,0,55.26,55.26,0,0,0,4.14,13.12,55.88,55.88,0,0,0,6.52,10.9,57.46,57.46,0,0,0,31.41,20.87,58.46,58.46,0,0,0,10.32,1.65c1.19.11,2.1.09,2.71.13s.93.05.93.05-1.26,0-3.65-.08a55.45,55.45,0,0,1-10.36-1.56,57,57,0,0,1-15.31-6.3,58.09,58.09,0,0,1-16.35-14.54A56.18,56.18,0,0,1,198,378.86a55.47,55.47,0,0,1-4.21-13.21,57.46,57.46,0,1,1,112.92,0A57.22,57.22,0,0,1,296,389.81a58,58,0,0,1-16.35,14.54,57.36,57.36,0,0,1-15.31,6.3,55.33,55.33,0,0,1-10.36,1.56C251.55,412.33,250.29,412.29,250.29,412.29Z" style="fill:#263238"></path><path d="M225.79,319.4h7.28c2.46,0,4.31.66,5.53,2a8.21,8.21,0,0,1,1.85,5.8v3.1a8.21,8.21,0,0,1-1.85,5.8c-1.22,1.32-3.07,2-5.53,2h-2.33v12.81h-5Zm7.28,14.16a2.35,2.35,0,0,0,1.83-.67,3.47,3.47,0,0,0,.6-2.3v-3.73a3.44,3.44,0,0,0-.6-2.29,2.35,2.35,0,0,0-1.83-.68h-2.33v9.67Z" style="fill:#fff"></path><path d="M244.72,349.25a8.24,8.24,0,0,1-1.94-5.85V326.86a8.22,8.22,0,0,1,1.94-5.84,8.54,8.54,0,0,1,11.15,0,8.26,8.26,0,0,1,1.93,5.84V343.4a8.29,8.29,0,0,1-1.93,5.85,8.54,8.54,0,0,1-11.15,0Zm8.13-5.53V326.55c0-2.07-.85-3.1-2.56-3.1s-2.56,1-2.56,3.1v17.17c0,2.07.85,3.1,2.56,3.1S252.85,345.79,252.85,343.72Z" style="fill:#fff"></path><path d="M261.13,319.4h7.28a7.2,7.2,0,0,1,5.53,2,8.21,8.21,0,0,1,1.84,5.8v3.1a8.21,8.21,0,0,1-1.84,5.8,7.2,7.2,0,0,1-5.53,2h-2.34v12.81h-4.94Zm7.28,14.16a2.33,2.33,0,0,0,1.82-.67,3.46,3.46,0,0,0,.61-2.3v-3.73a3.43,3.43,0,0,0-.61-2.29,2.33,2.33,0,0,0-1.82-.68h-2.34v9.67Z" style="fill:#fff"></path><path d="M218.48,383.58a7.83,7.83,0,0,1-1.81-5.52V361.71a7.83,7.83,0,0,1,1.81-5.52,8,8,0,0,1,10.47,0,7.87,7.87,0,0,1,1.8,5.52v3.22h-4.52v-3.52c0-1.89-.79-2.83-2.39-2.83s-2.39.94-2.39,2.83v17c0,1.86.8,2.78,2.39,2.78s2.39-.92,2.39-2.78v-4.65h4.52v4.31a7.87,7.87,0,0,1-1.8,5.52,8,8,0,0,1-10.47,0Z" style="fill:#fff"></path><path d="M235.23,383.53a7.93,7.93,0,0,1-1.87-5.65v-16a7.93,7.93,0,0,1,1.87-5.65,8.26,8.26,0,0,1,10.78,0,7.93,7.93,0,0,1,1.87,5.65v16a7.93,7.93,0,0,1-1.87,5.65,8.26,8.26,0,0,1-10.78,0Zm7.87-5.34V361.58c0-2-.83-3-2.48-3s-2.48,1-2.48,3v16.61c0,2,.83,3,2.48,3S243.1,380.19,243.1,378.19Z" style="fill:#fff"></path><path d="M251.1,354.67h7.08q3.69,0,5.39,1.72t1.7,5.28v1.87c0,3.16-1,5.16-3.13,6v.08a3.76,3.76,0,0,1,2.45,2.13,10.74,10.74,0,0,1,.72,4.31v5.34a19.83,19.83,0,0,0,.09,2.11,5.09,5.09,0,0,0,.43,1.59H261a7.64,7.64,0,0,1-.35-1.39c-.05-.44-.08-1.22-.08-2.35V375.8a4.72,4.72,0,0,0-.68-2.92,2.84,2.84,0,0,0-2.32-.82h-1.65v13H251.1Zm6.51,13a2.86,2.86,0,0,0,2.16-.74,3.53,3.53,0,0,0,.71-2.48v-2.34a3.87,3.87,0,0,0-.58-2.39,2.2,2.2,0,0,0-1.85-.74h-2.17v8.69Z" style="fill:#fff"></path><path d="M268.61,354.67h6l4.65,18.21h.09V354.67h4.26V385.1H278.7L273,362.89h-.09V385.1h-4.26Z" style="fill:#fff"></path><path d="M148.54,240.43l204.36-.23h.26l0,.26C345.72,299.7,337,369.69,327.62,444.37q-2.08,16.74-4.14,33.09l0,.22h-.23l-136.51,0h-.2l0-.2c-22.4-140-37.59-235-37.93-237,.34,2.07,15.72,97,38.4,237l-.23-.2,136.51,0-.26.22c1.37-10.88,2.75-21.93,4.15-33.08,9.36-74.69,18.14-144.67,25.57-203.91l.22.25Z" style="fill:#263238"></path><path d="M355.19,247.72H145.26a5.56,5.56,0,0,1-5.55-5.55h0a5.55,5.55,0,0,1,5.55-5.54H355.19a5.54,5.54,0,0,1,5.54,5.54h0A5.55,5.55,0,0,1,355.19,247.72Z" style="fill:#ebebeb"></path><path d="M355.19,247.72s.4,0,1.16-.15a5.68,5.68,0,0,0,2.9-1.71,5.47,5.47,0,0,0-.75-8,5.61,5.61,0,0,0-3.77-1.11l-48.72.08-160.74.08a5.29,5.29,0,1,0,.06,10.57h28.33l42.68,0,72.26.05,48.72.08,13.25,0,3.44,0,1.18,0-1.18,0-3.44,0-13.25,0-48.72.08-72.26.06h-71a5.81,5.81,0,1,1-.06-11.61l160.74.07,48.72.09a5.74,5.74,0,0,1,3.87,1.17,5.64,5.64,0,0,1,2,3,5.61,5.61,0,0,1-4.24,7,5.05,5.05,0,0,1-.88.09Z" style="fill:#263238"></path></g></svg>